<svg width="60" height="60" viewBox="0 0 60 60" fill="none" xmlns="http://www.w3.org/2000/svg">
<rect width="60" height="60" rx="30" fill="#5BB543"/>
<path d="M32.7001 24.3C32.5169 24.4869 32.4142 24.7382 32.4142 25C32.4142 25.2617 32.5169 25.5131 32.7001 25.7L34.3001 27.3C34.487 27.4832 34.7383 27.5858 35.0001 27.5858C35.2619 27.5858 35.5132 27.4832 35.7001 27.3L39.4701 23.53C39.9729 24.6412 40.1252 25.8792 39.9066 27.0791C39.6879 28.279 39.1088 29.3838 38.2464 30.2463C37.3839 31.1087 36.2792 31.6878 35.0792 31.9064C33.8793 32.1251 32.6413 31.9728 31.5301 31.47L24.6201 38.38C24.2223 38.7778 23.6827 39.0013 23.1201 39.0013C22.5575 39.0013 22.0179 38.7778 21.6201 38.38C21.2223 37.9822 20.9988 37.4426 20.9988 36.88C20.9988 36.3174 21.2223 35.7778 21.6201 35.38L28.5301 28.47C28.0273 27.3588 27.875 26.1207 28.0936 24.9208C28.3123 23.7209 28.8914 22.6161 29.7538 21.7537C30.6163 20.8913 31.721 20.3121 32.921 20.0935C34.1209 19.8749 35.3589 20.0271 36.4701 20.53L32.7101 24.29L32.7001 24.3Z" stroke="white" stroke-width="2" stroke-linecap="round" stroke-linejoin="round"/>
</svg>
