<svg width="25" height="25" viewBox="0 0 25 25" fill="none" xmlns="http://www.w3.org/2000/svg">
<rect x="1" y="1" width="23" height="23" fill="white"/>
<rect x="1" y="1" width="23" height="23" stroke="#C4B08B" stroke-width="2"/>
<path d="M8 14.7261C8.2349 14.9921 8.54903 15.4317 8.87921 15.9583C9.14714 16.3857 9.44523 16.8156 9.86148 17.4984C10.1589 17.9862 10.3263 18.2627 10.4445 18.5377C10.4683 18.6089 10.4839 18.6712 10.4997 18.7266C10.5155 18.782 10.531 18.8287 10.5942 18.9712" stroke="#C4B08B" stroke-width="2" stroke-linecap="round"/>
<path d="M10.8772 18.8297C10.8772 18.7674 10.9239 18.5797 12.0142 16.7328C13.0245 15.0215 15.0968 11.8196 16.2329 10.0663C17.3689 8.31312 17.5401 8.12633 17.6517 7.99898C17.9514 7.66739 18.2967 7.44711 19.3299 6.93062C19.816 6.69526 20.5476 6.35282 21.3485 6" stroke="#C4B08B" stroke-width="2" stroke-linecap="round"/>
</svg>
